<svg xmlns="http://www.w3.org/2000/svg" xmlns:xlink="http://www.w3.org/1999/xlink" viewBox="0 0 220.32 220.32"><defs><style>.cls-1{isolation:isolate}.cls-2{fill:#662d91}.cls-3{fill:#ed1e79}.cls-4{fill:#29abe2}.cls-5{fill:#2e3192}.cls-6{fill:#0071bc}.cls-7{fill:#2bb5cf}.cls-8{fill:#eee8f3}.cls-9{fill:url(#radial-gradient)}.cls-10{fill:url(#radial-gradient-2)}.cls-11{fill:url(#radial-gradient-3)}.cls-12{fill:url(#radial-gradient-4)}.cls-13{fill:url(#radial-gradient-7)}.cls-14{fill:url(#radial-gradient-9)}.cls-15{fill:url(#radial-gradient-13)}.cls-16{fill:url(#radial-gradient-17)}.cls-17{fill:url(#radial-gradient-18)}.cls-18{fill:url(#radial-gradient-19)}.cls-19{fill:url(#radial-gradient-20)}.cls-20{fill:#ebe4f1}.cls-21{fill:#3896c1}.cls-22{fill:#ce227f}.cls-23{fill:#1762b2}.cls-24{fill:#d9d2df}.cls-25{fill:#3498b9}.cls-26,.cls-27{stroke-miterlimit:10}.cls-26{stroke-width:.5px;opacity:.67;fill:url(#radial-gradient-22);stroke:url(#radial-gradient-23)}.cls-27{fill:none;stroke-width:.75px;opacity:.51;mix-blend-mode:screen;stroke:url(#radial-gradient-24)}</style><radialGradient id="radial-gradient" cx="81.82" cy="-21.01" r="2.79" gradientTransform="matrix(38.81 0 0 -38.81 -2995.9 -704.77)" gradientUnits="userSpaceOnUse"><stop offset="0" stop-color="#ededed"/><stop offset="1" stop-color="#d1d0d0"/></radialGradient><radialGradient id="radial-gradient-2" cx="81.82" cy="-21.01" r="2.79" gradientTransform="matrix(38.81 0 0 -38.81 -2995.9 -704.77)" gradientUnits="userSpaceOnUse"><stop offset="0" stop-color="#764a97"/><stop offset="1" stop-color="#5a2d7b"/></radialGradient><radialGradient id="radial-gradient-3" cx="81.82" cy="-21.01" r="2.79" gradientTransform="matrix(38.81 0 0 -38.81 -2995.9 -704.77)" gradientUnits="userSpaceOnUse"><stop offset="0" stop-color="#df3f85"/><stop offset="1" stop-color="#c22268"/></radialGradient><radialGradient id="radial-gradient-4" cx="81.82" cy="-21.01" r="2.79" gradientTransform="matrix(38.81 0 0 -38.81 -3064.8 -704.95)" gradientUnits="userSpaceOnUse"><stop offset="0" stop-color="#47abd6"/><stop offset="1" stop-color="#2b8eb9"/></radialGradient><radialGradient id="radial-gradient-7" cx="81.82" cy="-21.01" r="2.79" gradientTransform="matrix(38.81 0 0 -38.81 -3064.8 -704.95)" gradientUnits="userSpaceOnUse"><stop offset="0" stop-color="#4b4d98"/><stop offset="1" stop-color="#2e307b"/></radialGradient><radialGradient id="radial-gradient-9" cx="81.82" cy="-21.01" r="2.79" gradientTransform="matrix(38.81 0 0 -38.81 -2995.9 -704.77)" gradientUnits="userSpaceOnUse"><stop offset="0" stop-color="#48b3c7"/><stop offset="1" stop-color="#2c96aa"/></radialGradient><radialGradient id="radial-gradient-13" cx="81.82" cy="-21.01" r="2.79" gradientTransform="matrix(38.81 0 0 -38.81 -3064.8 -704.95)" gradientUnits="userSpaceOnUse"><stop offset="0" stop-color="#277fb8"/><stop offset="1" stop-color="#0b629c"/></radialGradient><radialGradient id="radial-gradient-17" cx="81.82" cy="-21.01" r="2.79" xlink:href="#radial-gradient-9"/><radialGradient id="radial-gradient-18" cx="81.82" cy="-21.01" r="2.79" gradientTransform="matrix(38.81 0 0 -38.81 -2995.9 -704.77)" gradientUnits="userSpaceOnUse"><stop offset="0" stop-color="#f1ebf5"/><stop offset="1" stop-color="#d4ced8"/></radialGradient><radialGradient id="radial-gradient-19" cx="81.82" cy="-21.01" r="2.79" gradientTransform="matrix(38.81 0 0 -38.81 -2995.9 -704.77)" gradientUnits="userSpaceOnUse"><stop offset="0" stop-color="#4cb2cf"/><stop offset="1" stop-color="#2f95b2"/></radialGradient><radialGradient id="radial-gradient-20" cx="81.82" cy="-21.01" r="2.79" gradientTransform="matrix(38.81 0 0 -38.81 -2995.9 -704.77)" gradientUnits="userSpaceOnUse"><stop offset="0" stop-color="#7a489f"/><stop offset="1" stop-color="#5d2b82"/></radialGradient><radialGradient id="radial-gradient-22" cx="179.08" cy="110.36" r="109.77" xlink:href="#radial-gradient-3"/><radialGradient id="radial-gradient-23" cx="179.08" cy="110.36" r="110.02" xlink:href="#radial-gradient-3"/><radialGradient id="radial-gradient-24" cx="110.16" cy="110.16" r="110.16" xlink:href="#radial-gradient-3"/></defs><title>logoUdacity</title><g class="cls-1"><g id="Layer_1" data-name="Layer 1"><path class="cls-2" d="M118.15 42.5l-2.33 4.36-5.7 10.16v-.14l-.24-.47-7.19-11.99-1.41-2.02-33.51.1.81 1.37.09.33 12.57 22.04.33.59 26.79 47.06.7 1.23h.06l.67-1.2 26.72-47.1.34-.58 12.51-22.35.25-.42.14-.98-31.6.01"/><path class="cls-3" d="M157.69 162.6l10.08 19.56H58.33l.31-.84 10.59-19.07-.2.35H29.29l.44-1.39.42-1.29 2.49-6 .53-.59 5.5-10.78 5.7-11.15 1.2-2.31 7.12-13.97h38.32l-.28.53-3.18 6.45-4.91 9.97-.62 1.23-.33.65-6.15 11.59-2.63 4.97-.97.92h82.2l-.95-.92-1.59-3.1-7.51-14.61-2.43-4.75-1.01-1.98-2.21-4.36-3.01-5.89-.37-.7h38.33l4.52 9.05 1.45 2.9 1.04 2.02 1.42 2.85 14.02 27.98.45 1.29.5 1.39h-39.1"/><path class="cls-4" d="M69.09 162.52l.56.08h-.62l.06-.08M157.35 161.96l.34.64-.34-.64M167.97 182.16l-.14.11-.06-.11h.2"/><path class="cls-5" d="M178 84.39H44.2l9.69-16.64.23-.6.16-.62 9.25-15.65h95.14l9.24 15.47.17.45.22.95 9.7 16.64"/><path class="cls-3" d="M204 115.3l-5.39.69 27.68 46.16 12.35-.75-23.18-45.33-11.46-.77" transform="translate(-68.9 -.18)"/><path class="cls-6" d="M94.84 105.34l-2.32 1.4 1.48-1.4h.84"/><path class="cls-7" d="M237.2 67.23L237 67l-.17-.45-9.25-15.47H227l-.73-1.4h-18.62l-4.05-7L180.17 2h-.06l-22.68 39.45-.67 1.17-4.05 7h-18.85l-.59 1.4h-.84l-9.25 15.47-.18.51-.22.25-9.68 15.93h133.8l-9.7-15.95M220.53 79h-82l.14-1 .25-.42h-1l.78-1 1.84-3.21 6.82-11.87 6.84-11.87 4.05-7.07 17.32-30.05a4.25 4.25 0 0 1 7.35 0l17.4 30.08 4.08 7 5.45 9.44 8.27 14.27 2.43 4.19h-.81l.81 1.4m28.77 50.28h-25a3.91 3.91 0 0 0-1.9.47 4.2 4.2 0 0 0-1.73 5.95l4.61 7.71.84 1.23h20.36a4.16 4.16 0 0 0 3.74-2.32 3.74 3.74 0 0 0 .5-1.93v-8.27l-1.42-2.85m-7-14h-.78l5.31 9-4.52-9m-10.99-23.63l.39-.61H231l-.58-.92-.53.95-38-.14-28-.11-36.53-.14-.29-.56-.34.56h-.36l.2.31-10.67 18.51-7.74 13.46-21.62 37.57-.06.08a4.33 4.33 0 0 0 2.88-2.15L105.48 129v2.46l1.4-2.46v11.42a4.22 4.22 0 0 0 .7 2.35 4.28 4.28 0 0 0 3.55 1.9h21.23l.84-1.31 4.61-7.63a4.24 4.24 0 0 0-3.63-6.42h-25.74l.73-1.4h-.73l1.31-2.26 1.51-2.54.45-.61 7.65-13 7.6-13c.14-.28 1.09-.45 2.49-.59h.14a8.47 8.47 0 0 1 .87-.06c5.81-.36 17.07.08 20.17.84a6.72 6.72 0 0 1 4.58 3.88 6.62 6.62 0 0 1-.5 6.15l-5.42 8.63-.31.5-.06.11a4.24 4.24 0 0 0 3.66 6.37h53a4.07 4.07 0 0 0 1.76-.39 4.2 4.2 0 0 0 2-5.87l-.06-.11-.17-.28-.2-.34-3.66-6.34-1.17-2a7.5 7.5 0 0 1 6.51-11.23h17a4.89 4.89 0 0 1 1.12.14 4.25 4.25 0 0 1 2.54 2l7.07 12h3.66l-10.64-18.38" transform="translate(-68.9 -.18)"/><path class="cls-3" d="M177.91 124.17l-4.52-9.05h-.79l-3.24-5.48-18.01-.05.53-.98.36-.58 7.51-12.32 2.13-3.49.56-1.25.39-.99h-1.85l-37.95.24-27.99.08-36.54-.05-.84.35.73 1.2 2.29 3.87 7.24 12.04.36.59.53.98-18.35-.06-3.47-.02-7.73 13.46 1.59 2.77 2.15 3.66 1.37 2.31 3.04 5.23 4.56 7.82.58 1 22.99.09 5.89.02 7.34.03-3.79-6.56V139l-3.17-5.05-1.6-2.57-3.1-5.32-6.49-10.94h2.49l6.95.27 10.67-.21 38.94-.06h19.47l-1.42 2.72-4.98 8.26-1.08 1.86-2.16 3.59-.19.33-.75 1.24-7.69 12.63-.95 2.2 15.92.69h16.82l4.66-.58 1.79-3.31 7.24-12.41 1.84-3.18 1.17-2.05.14-.24-1.59-2.7"/><path class="cls-6" d="M120.71 90.34l.42-.14.16-.22-.58.36"/><path class="cls-3" d="M111.25 1.79h-.03l.02-.02.01.02"/><path class="cls-3" d="M180.17 2l27.51 47.68L180.17 2m-27.46 47.66L180.14 2l-27.4 47.68" transform="translate(-68.9 -.18)"/><path class="cls-3" d="M207.65 49.08L180.87 2h-.7l27.49 47.68h.34l-.34-.59m-54.94 0l-.34.59h.34L180.11 2h-.67l-26.73 47.08" transform="translate(-68.9 -.18)"/><path class="cls-6" d="M167.67 92.35l-3.19 2.22-3.86-5.49 3.19-2.22 3.86 5.49"/><path class="cls-6" d="M165.64 86.64l40.02 72.94-3.76 2.14-40.98-72.44 4.72-2.64M183.22 131.85v1.51l-.48-.81-.92-1.54v.93l-1.42-2.85 2.34 2.85v-.93l.48.84M121.13 90.2l-.42.14.58-.36-.16.22"/><path class="cls-6" d="M121.29 89.98l-.16.22-.42.14.58-.36"/><path class="cls-2" d="M84.98 137.24v-.03l-6-10.92-6.02-10.7-11.49-19.97-3.01-5.28-.31-.56-.33.56-.16.31-10.67 18.55-7.73 13.46-18.99 32.99-1.33 2.31-1.3 2.27-.06.08-1.2 2.33 32.99-.04 1.42-2.62.31-.53 6.23-10.76.84-1.42.28.47 7.12 12.18 1.52 2.68 1.94-.01.62-.01 29.52-.27-14.19-25.07M152.54 162.44l2.34-4.35 5.73-10.15v.14l.23.47 7.17 12 1.41 2.03 33.5-.02-.81-1.37.81 1.37-13.41-23.77-.33-.59-26.68-47.13-.69-1.23h-.06l-.67 1.2-26.84 47.03-.34.59-12.57 22.31-.25.42-.14.98 31.6.07"/><path class="cls-6" d="M61.76 90.34h-9.25v-5.42h9.25v5.42"/><path class="cls-7" d="M179.44 2l21.07 39 4.58 6.38 1.51 2.79 19.71-.47.73 1.4h.53l9.25 15.47.18.43.22.25 9.69 15.95H113.1l9.69-15.95.21-.25.17-.45 9.25-15.47h.84l.59-1.4h18.52l1.86-1.86 4-6.4L180.87 2h-4.64c-.84 0-1.65.06-2.46.08-2.74.08-5.5.28-8.3.64a107.94 107.94 0 0 0-54.83 23.49c-1.17 1-2.35 2-3.46 3l-.2.17c-1 .89-1.93 1.76-2.88 2.68s-1.87 1.82-2.77 2.77c-.42.42-.84.87-1.23 1.28a24.11 24.11 0 0 0-1.62 1.79c-.53.56-1 1.15-1.54 1.73s-1.12 1.28-1.68 2c-1.4 1.7-2.74 3.46-4 5.25-1 1.34-1.9 2.71-2.82 4.08a104.45 104.45 0 0 0-7.29 13 97.6 97.6 0 0 0-5.36 13.66c-.25.78-.5 1.56-.73 2.37s-.47 1.56-.67 2.37-.39 1.49-.59 2.22c-.36 1.42-.67 2.85-.95 4.27-.25 1.09-.45 2.18-.61 3.27-.34 2-.61 4-.84 6.06-.17 1.31-.28 2.63-.39 4v.45c-.11 1.7-.2 3.38-.25 5.11v2.57c0 1.9.06 3.8.14 5.67s.25 3.74.45 5.59c.08 1 .2 1.93.34 2.88.28 2.15.64 4.3 1 6.42.22 1.12.39 2 .61 3a107 107 0 0 0 3.7 12.8c.31.89.64 1.73.95 2.6q.68 1.73 1.39 3.4.48 1.13 1 2.24l.92 2c.22.45.43.86.64 1.31a51.49 51.49 0 0 0 3 5.32l1.66-3.17 21.62-37.57 7.74-13.46 10.67-18.55-.2-.31h.36l.34-.56.34.56 36.53.14 28 .11 38 .14.53-.95.51 1 .36.61 10.59 18.32 8.24 14.22L271 161.38l.71 1.41c.84-.23 6.27-7.19 6.18-8.23 0 0 1.53-3.16 2.51-5.73.25-.7.53-1.4.75-2.09a96.68 96.68 0 0 0 3.24-10.84c.22-.89.42-1.79.61-2.68.28-1.23.53-2.46.73-3.72.14-.73.25-1.45.36-2.18a109 109 0 0 0 1.34-17.21C287.34 50.73 237.86 2.82 179.44 2m45.5 88.9h12.74v-4.66h-12.74v4.66" transform="translate(-68.9 -.18)"/><path class="cls-8" d="M288.85 110.35a109.79 109.79 0 0 1-109.78 109.78 109.77 109.77 0 0 0 109.78-109.77" transform="translate(-68.9 -.18)"/><path class="cls-9" d="M236.73 182.45l-.06-.11h.2l-.14.11M273 161.63a6.78 6.78 0 0 1-1.17 1.12h-45.19l10.08 19.55H127.24l.31-.84 10.39-18.71H85.82A107 107 0 0 0 273 161.63m-70.64-39.34h-45.9l-4.92 10-.23.46 2.57 4.68 8 14.19h33.7l7.19-12.77.34-.59 4.29-7.51-5.07-8.46M179.22 10.43a4.18 4.18 0 0 0-3.66 2.12L158.24 42.6h11.95l1.41 2 3.87 6.45h7l2.25-4 2.33-4.36h13.28v-.05l-17.4-30.08a4.23 4.23 0 0 0-3.68-2.12" transform="translate(-68.9 -.18)"/><path class="cls-10" d="M153.17 48.87l-.46.79.46-.79-.46.79.46-.79m47.17-6.19h-13.29L184.73 47l-2.25 4h22.72l-.81-1.4-4-7m-30.16-.1h-11.95l-4 7-.81 1.4h22.08l-3.87-6.45-1.41-2" transform="translate(-68.9 -.18)"/><path class="cls-11" d="M226.59 162.79l-.34-.64.34.64m-99.52-15.33l-.84 1.42-6.23 10.75-.31.53-1.42 2.63h19.66l-10.39 18.71-.31.84h109.44l-10.08-19.55h39.1-27.36l-.9-1.3-11.16.68-2.4-4-.07.13-2.34 4.36-31.6-.07.14-1 .25-.42 5.37-9.54h-33.7l6.16 10.88-29.52.27h-.16.14-2.55l-1.52-2.68-7.12-12.18-.28-.47M142 115.3h-.43l.27.47 6 10.7 3.43 6.24.23-.46 4.92-10h-3.88a4.24 4.24 0 0 1-3.66-6.37l.06-.11.15-.24H149l-7-.27m74.23 0h-7.36l.2.34 6.34.42.18.36.64-1.11" transform="translate(-68.9 -.18)"/><path class="cls-12" d="M69.5 162.58l-.46.01-.01.01h.62l-.15-.02M157.35 161.96l.34.64-.34-.64M167.97 182.16h-.2l.06.11.14-.11"/><path class="cls-13" d="M136.29 50.88H84.48l-6.04 10.47-6.81 11.87-1.84 3.21-.79.98h1.04l-.25.42-.14.98h81.98l-.81-1.4h.81l-2.43-4.19-8.27-14.27v-.03l-4.64-8.04"/><path class="cls-11" d="M229.8 148.82h-.68l-5.26 9.32 2.4 4 11.16-.68-.5-.73-7.11-11.92m-20.72-33.18l.17.28.04.09a4.2 4.2 0 0 1-2 5.87 4.07 4.07 0 0 1-1.76.39h-3.23l5.07 8.46 8.18-14.33-.18-.36-6.34-.42" transform="translate(-68.9 -.18)"/><path class="cls-14" d="M204.33 115.3h-5.75l-38.94.06-10.52.2-.15.24-.06.11a4.24 4.24 0 0 0 3.66 6.37h53a4.07 4.07 0 0 0 1.76-.39 4.2 4.2 0 0 0 2-5.87l-.06-.11-.17-.28-.2-.34h-4.55m-77.6-24.78h-.35l.19.3.13-.25m31.5-47.91l17.32-30.05a4.18 4.18 0 0 1 3.66-2.12 4.23 4.23 0 0 1 3.68 2.12l17.4 30.08v.05l4 7 .81 1.4 4.64 8L218 73.4l2.43 4.19h-.81l.81 1.4h-82l.14-1 .25-.42h-1l.78-1 1.84-3.21 6.82-11.87 6-10.47.81-1.4 4-7m22.01-39.24l-21.89 38-4 6.4-1.07 1.07-.46.79h-18.8l-.59 1.4h-.84l-9.25 15.47-.18.49-.22.25-9.68 15.93h133.8l-9.7-15.95-.2-.23-.17-.45-9.25-15.47H227l-.73-1.4-19.71.47-1.51-2.79-4.54-6.36L180.2 3.39h-.12" transform="translate(-68.9 -.18)"/><path class="cls-11" d="M229.51 148.12l-.39.7h.68l-.05-.08-.24-.48v-.14M127.4 90.53l3 5.28 11.21 19.5h.39l7 .27h.15l10.52-.2 38.94-.06h17.66L230 91.23l.18-.33h-.28l-38-.14-28-.11-36.53-.14" transform="translate(-68.9 -.18)"/><path class="cls-11" d="M84.27 48.69h-.01l-.45.79.46-.79"/><path class="cls-11" d="M84.26 48.69l-.79.79h.34l.45-.79"/><path class="cls-15" d="M173.31 110.16l15.87 28.04.33.59 8.84 15.66-17.09-30.56-7.95-13.73"/><path class="cls-10" d="M127.37 90.53h-.64l-.13.25-10.7 18.6-7.74 13.46-21.62 37.57-1 1.91.28.5h32.45l1.42-2.63.31-.53 6.23-10.75.84-1.42.28.47 7.12 12.18 1.52 2.68h2.56l29.52-.27-6.16-10.88-8-14.19-2.57-4.68-3.43-6.24-6-10.7-.27-.47-11.21-19.5-3-5.28M231 90.9h-.8l-.18.33-13.78 24.07-.64 1.11-8.18 14.33-4.29 7.51-.34.59-7.19 12.77-5.37 9.54-.25.42-.14 1 31.6.07 2.34-4.36.07-.13 5.26-9.32.39-.7v.14l.24.48.05.08 7.11 11.92.5.73.9 1.3h33.36l-.66-1.4-3.77-6.74-8.82-15.64-.33-.59-15.87-28-.28-.49-10.59-18.39-.34-.61" transform="translate(-68.9 -.18)"/><path class="cls-15" d="M58.17 89.78l-.34.56h-.36 1.03l-.33-.56"/><path class="cls-16" d="M179.08 3.38a107 107 0 0 0-93.54 158.94l1-1.91 21.62-37.57 7.74-13.46 10.67-18.55-.19-.3h.36l.34-.56.34.56 36.53.14 28 .11 38 .14H231l.36.61 10.59 18.32.28.49 8 13.73 17.08 30.56 3.77 6.74.69 1.37h.09a6.78 6.78 0 0 0 1.17-1.12A107 107 0 0 0 180.2 3.39L200.51 41l4.58 6.38 1.51 2.79 19.71-.47.73 1.4h.53l9.25 15.47.18.43.22.25 9.69 15.95H113.1l9.69-15.95.21-.25.17-.45 9.25-15.47h.84l.59-1.4h18.52l.79-.79 1.07-1.07 4-6.4 21.89-38h-1" transform="translate(-68.9 -.18)"/><path class="cls-17" d="M85.82 162.82a107.12 107.12 0 0 0 93.26 54.52 107.11 107.11 0 0 1-93.25-54.52" transform="translate(-68.9 -.18)"/><path class="cls-18" d="M180.09 3.36h.12-.09" transform="translate(-68.9 -.18)"/><path class="cls-19" d="M85.54 162.32l.27.48-.28-.5" transform="translate(-68.9 -.18)"/><path class="cls-18" d="M180.18 3.36a107 107 0 0 1 105.86 107 107 107 0 0 0-105.87-107m-1.12 0a107 107 0 0 0-107 107 106.52 106.52 0 0 0 13.46 52A107 107 0 0 1 179.08 3.38h1-1" transform="translate(-68.9 -.18)"/><path class="cls-20" d="M69.31 110.35a109.79 109.79 0 0 0 109.75 109.78A109.78 109.78 0 0 1 69.31 110.36M179.06.56A109.79 109.79 0 0 0 69.28 110.35a109.77 109.77 0 0 1 219.55 0A109.79 109.79 0 0 0 179.06.56" transform="translate(-68.9 -.18)"/><path class="cls-21" d="M180.14 3.27v.08h.09v-.08m0-1.29" transform="translate(-68.9 -.18)"/><path class="cls-22" d="M111.24 1.77l-.02.02h.03l-.01-.02"/><path class="cls-22" d="M180.18 2h.7-.7" transform="translate(-68.9 -.18)"/><path class="cls-23" d="M274.56 159.75" transform="translate(-68.9 -.18)"/><path class="cls-2" d="M85.53 162.34l-.25.48h.52l-.27-.48" transform="translate(-68.9 -.18)"/><path class="cls-21" d="M72.07 110.36H70.7c0 1.88.06 3.76.14 5.61s.25 3.74.45 5.59c.08 1 .2 1.93.34 2.88.28 2.15.64 4.3 1 6.42.22 1.12.39 2 .61 3A107 107 0 0 0 77 146.67c.31.89.64 1.73.95 2.6q.68 1.73 1.39 3.4.48 1.13 1 2.24l.92 2c.22.45.43.86.64 1.31a51.49 51.49 0 0 0 3 5.32l.4-.76.25-.48a106.52 106.52 0 0 1-13.46-52M179.44 2h-3.23c-.84 0-1.65.06-2.46.08-2.74.08-5.5.28-8.3.64a107.94 107.94 0 0 0-54.83 23.49c-1.17 1-2.35 2-3.46 3l-.2.17c-1 .89-1.93 1.76-2.88 2.68s-1.87 1.82-2.77 2.77c-.42.42-.84.87-1.23 1.28a24.11 24.11 0 0 0-1.62 1.79c-.53.56-1 1.15-1.54 1.73s-1.12 1.28-1.68 2c-1.4 1.7-2.74 3.46-4 5.25-1 1.34-1.9 2.71-2.82 4.08a104.45 104.45 0 0 0-7.29 13 97.6 97.6 0 0 0-5.36 13.66c-.25.78-.5 1.56-.73 2.37s-.47 1.56-.67 2.37-.37 1.49-.57 2.22c-.36 1.42-.67 2.85-.95 4.27-.25 1.09-.45 2.18-.61 3.27-.34 2-.61 4-.84 6.06-.17 1.31-.28 2.63-.39 4v.45c-.11 1.7-.2 3.38-.25 5.11v2.57h1.37a107 107 0 0 1 107-107h1v-.08.08a107 107 0 0 1 105.87 107 106.5 106.5 0 0 1-13 51.31c.46-.51 1-1.16 1.55-1.84 1.66-2.09 3.4-4.6 3.35-5.2 0 0 1.53-3.16 2.51-5.73.25-.7.53-1.4.75-2.09a96.68 96.68 0 0 0 3.24-10.84c.22-.89.42-1.79.61-2.68.28-1.23.53-2.46.73-3.72.14-.73.25-1.45.36-2.18a109 109 0 0 0 1.34-17.21C287.34 51.21 238.67 3.6 180.87 2h-1.43" transform="translate(-68.9 -.18)"/><path class="cls-24" d="M273 161.62a107.12 107.12 0 0 1-93.92 55.71A107.11 107.11 0 0 0 273 161.62" transform="translate(-68.9 -.18)"/><path class="cls-25" d="M286.06 110.35A106.49 106.49 0 0 1 273 161.63a106.5 106.5 0 0 0 13.05-51.26" transform="translate(-68.9 -.18)"/><path class="cls-25" d="M3.17 110.18H1.8h1.37"/><path class="cls-26" d="M179.08.6100000000000001A109.77 109.77 0 0 0 69.31 110.35h1.4v-2.57c.06-1.73.14-3.41.25-5.11v-.45c.11-1.34.22-2.65.39-4 .22-2 .5-4.05.84-6.06.17-1.09.36-2.18.61-3.27.28-1.42.59-2.85.95-4.27.2-.73.36-1.48.56-2.21s.47-1.63.69-2.41.47-1.59.73-2.37A97.6 97.6 0 0 1 81.12 64a104.45 104.45 0 0 1 7.29-13c.92-1.37 1.84-2.74 2.82-4.08 1.28-1.79 2.63-3.55 4-5.25.56-.67 1.09-1.31 1.68-2s1-1.17 1.54-1.73a24.11 24.11 0 0 1 1.62-1.79c.39-.42.81-.87 1.23-1.28q1.34-1.42 2.77-2.77c.95-.92 1.9-1.79 2.88-2.68l.2-.17c1.12-1 2.29-2 3.46-3a107.94 107.94 0 0 1 54.87-23.48c2.79-.36 5.56-.56 8.3-.64.81 0 1.62-.08 2.46-.08H179.44V2h1.43c57.8 1.58 106.48 49.19 106.59 108.1a109 109 0 0 1-1.34 17.21c-.11.73-.22 1.45-.36 2.18-.2 1.26-.45 2.49-.73 3.72-.2.89-.39 1.79-.61 2.68a96.68 96.68 0 0 1-3.24 10.84c-.22.7-.5 1.4-.75 2.09-1 2.57-2.51 5.73-2.51 5.73.05.6-1.69 3.11-3.35 5.2-.55.69-1.08 1.33-1.55 1.84a107.11 107.11 0 0 1-93.93 55.72 107.12 107.12 0 0 1-93.29-54.49h-.52l-.4.76a51.49 51.49 0 0 1-3-5.32c-.21-.45-.42-.87-.64-1.31l-.92-2q-.51-1.11-1-2.24-.72-1.68-1.39-3.4c-.31-.87-.64-1.7-.95-2.6a107 107 0 0 1-3.69-12.79c-.22-1-.39-1.9-.61-3-.39-2.12-.75-4.27-1-6.42-.14-.95-.25-1.9-.34-2.88-.2-1.84-.34-3.72-.45-5.59s-.14-3.73-.14-5.61h-1.4A109.77 109.77 0 1 0 179.08.59" transform="translate(-68.9 -.18)"/><circle class="cls-27" cx="110.16" cy="110.16" r="109.79"/></g></g></svg>