<svg xmlns="http://www.w3.org/2000/svg" xmlns:xlink="http://www.w3.org/1999/xlink" viewBox="0 0 220.32 220.32"><defs><style>.cls-1{isolation:isolate;}.cls-2{fill:#662d91;}.cls-3{fill:#ed1e79;}.cls-4{fill:#29abe2;}.cls-5{fill:#2e3192;}.cls-6{fill:#0071bc;}.cls-7{fill:#2bb5cf;}.cls-8{fill:#eee8f3;}.cls-9{fill:url(#radial-gradient);}.cls-10{fill:url(#radial-gradient-2);}.cls-11{fill:url(#radial-gradient-3);}.cls-12{fill:url(#radial-gradient-4);}.cls-13{fill:url(#radial-gradient-7);}.cls-14{fill:url(#radial-gradient-9);}.cls-15{fill:url(#radial-gradient-13);}.cls-16{fill:url(#radial-gradient-17);}.cls-17{fill:url(#radial-gradient-18);}.cls-18{fill:url(#radial-gradient-19);}.cls-19{fill:url(#radial-gradient-20);}.cls-20{fill:#ebe4f1;}.cls-21{fill:#3896c1;}.cls-22{fill:#ce227f;}.cls-23{fill:#1762b2;}.cls-24{fill:#d9d2df;}.cls-25{fill:#3498b9;}.cls-26,.cls-27{stroke-miterlimit:10;}.cls-26{stroke-width:0.5px;opacity:0.67;fill:url(#radial-gradient-22);stroke:url(#radial-gradient-23);}.cls-27{fill:none;stroke-width:0.75px;opacity:0.51;mix-blend-mode:screen;stroke:url(#radial-gradient-24);}</style><radialGradient id="radial-gradient" cx="81.82" cy="-21.01" r="2.79" gradientTransform="matrix(38.81, 0, 0, -38.81, -2995.9, -704.77)" gradientUnits="userSpaceOnUse"><stop offset="0" stop-color="#ededed"/><stop offset="1" stop-color="#d1d0d0"/></radialGradient><radialGradient id="radial-gradient-2" cx="81.82" cy="-21.01" r="2.79" gradientTransform="matrix(38.81, 0, 0, -38.81, -2995.9, -704.77)" gradientUnits="userSpaceOnUse"><stop offset="0" stop-color="#764a97"/><stop offset="1" stop-color="#5a2d7b"/></radialGradient><radialGradient id="radial-gradient-3" cx="81.82" cy="-21.01" r="2.79" gradientTransform="matrix(38.81, 0, 0, -38.81, -2995.9, -704.77)" gradientUnits="userSpaceOnUse"><stop offset="0" stop-color="#df3f85"/><stop offset="1" stop-color="#c22268"/></radialGradient><radialGradient id="radial-gradient-4" cx="81.82" cy="-21.01" r="2.79" gradientTransform="matrix(38.81, 0, 0, -38.81, -3064.8, -704.95)" gradientUnits="userSpaceOnUse"><stop offset="0" stop-color="#47abd6"/><stop offset="1" stop-color="#2b8eb9"/></radialGradient><radialGradient id="radial-gradient-7" cx="81.82" cy="-21.01" r="2.79" gradientTransform="matrix(38.81, 0, 0, -38.81, -3064.8, -704.95)" gradientUnits="userSpaceOnUse"><stop offset="0" stop-color="#4b4d98"/><stop offset="1" stop-color="#2e307b"/></radialGradient><radialGradient id="radial-gradient-9" cx="81.82" cy="-21.01" r="2.79" gradientTransform="matrix(38.81, 0, 0, -38.81, -2995.9, -704.77)" gradientUnits="userSpaceOnUse"><stop offset="0" stop-color="#48b3c7"/><stop offset="1" stop-color="#2c96aa"/></radialGradient><radialGradient id="radial-gradient-13" cx="81.82" cy="-21.01" r="2.79" gradientTransform="matrix(38.81, 0, 0, -38.81, -3064.8, -704.95)" gradientUnits="userSpaceOnUse"><stop offset="0" stop-color="#277fb8"/><stop offset="1" stop-color="#0b629c"/></radialGradient><radialGradient id="radial-gradient-17" cx="81.82" cy="-21.01" r="2.79" xlink:href="#radial-gradient-9"/><radialGradient id="radial-gradient-18" cx="81.82" cy="-21.01" r="2.79" gradientTransform="matrix(38.81, 0, 0, -38.81, -2995.9, -704.77)" gradientUnits="userSpaceOnUse"><stop offset="0" stop-color="#f1ebf5"/><stop offset="1" stop-color="#d4ced8"/></radialGradient><radialGradient id="radial-gradient-19" cx="81.82" cy="-21.01" r="2.79" gradientTransform="matrix(38.81, 0, 0, -38.81, -2995.9, -704.77)" gradientUnits="userSpaceOnUse"><stop offset="0" stop-color="#4cb2cf"/><stop offset="1" stop-color="#2f95b2"/></radialGradient><radialGradient id="radial-gradient-20" cx="81.82" cy="-21.01" r="2.79" gradientTransform="matrix(38.81, 0, 0, -38.81, -2995.9, -704.77)" gradientUnits="userSpaceOnUse"><stop offset="0" stop-color="#7a489f"/><stop offset="1" stop-color="#5d2b82"/></radialGradient><radialGradient id="radial-gradient-22" cx="179.08" cy="110.36" r="109.77" gradientTransform="matrix(1, 0, 0, 1, 0, 0)" xlink:href="#radial-gradient-3"/><radialGradient id="radial-gradient-23" cx="179.08" cy="110.36" r="110.02" gradientTransform="matrix(1, 0, 0, 1, 0, 0)" xlink:href="#radial-gradient-3"/><radialGradient id="radial-gradient-24" cx="110.16" cy="110.16" r="110.16" gradientTransform="matrix(1, 0, 0, 1, 0, 0)" xlink:href="#radial-gradient-3"/></defs><title>logoUdacity</title><g class="cls-1"><g id="Layer_1" data-name="Layer 1"><polyline class="cls-2" points="118.15 42.5 115.82 46.86 110.12 57.02 110.12 56.88 109.88 56.41 102.69 44.42 101.28 42.4 67.77 42.5 68.58 43.87 68.67 44.2 81.24 66.24 81.57 66.83 108.36 113.89 109.06 115.12 109.12 115.12 109.79 113.92 136.51 66.82 136.85 66.24 149.36 43.89 149.61 43.47 149.75 42.49 118.15 42.5"/><polyline class="cls-3" points="157.69 162.6 167.77 182.16 58.33 182.16 58.64 181.32 69.23 162.25 69.03 162.6 29.29 162.6 29.73 161.21 30.15 159.92 32.64 153.92 33.17 153.33 38.67 142.55 44.37 131.4 45.57 129.09 52.69 115.12 91.01 115.12 90.73 115.65 87.55 122.1 82.64 132.07 82.02 133.3 81.69 133.95 75.54 145.54 72.91 150.51 71.94 151.43 154.14 151.43 153.19 150.51 151.6 147.41 144.09 132.8 141.66 128.05 140.65 126.07 138.44 121.71 135.43 115.82 135.06 115.12 173.39 115.12 177.91 124.17 179.36 127.07 180.4 129.09 181.82 131.94 195.84 159.92 196.29 161.21 196.79 162.6 157.69 162.6"/><polyline class="cls-4" points="69.09 162.52 69.65 162.6 69.03 162.6 69.09 162.52"/><polyline class="cls-4" points="157.35 161.96 157.69 162.6 157.35 161.96"/><polyline class="cls-4" points="167.97 182.16 167.83 182.27 167.77 182.16 167.97 182.16"/><polyline class="cls-5" points="178 84.39 44.2 84.39 53.89 67.75 54.12 67.15 54.28 66.53 63.53 50.88 64.37 50.88 64.95 50.88 157.41 50.88 158.13 50.88 158.67 50.88 167.91 66.35 168.08 66.8 168.3 67.75 178 84.39"/><path class="cls-3" d="M204,115.3l-5.39.69,27.68,46.16,12.35-.75-23.18-45.33L204,115.3" transform="translate(-68.9 -0.18)"/><polyline class="cls-6" points="94.84 105.34 92.52 106.74 94 105.34 94.84 105.34"/><path class="cls-7" d="M237.2,67.23L237,67l-0.17-.45-9.25-15.47H227l-0.73-1.4H207.65l-4.05-7L180.17,2h-0.06L157.43,41.45l-0.67,1.17-4.05,7H133.86l-0.59,1.4h-0.84l-9.25,15.47L123,67l-0.22.25L113.1,83.18H246.9L237.2,67.23M220.53,79h-82l0.14-1,0.25-.42h-1l0.78-1,1.84-3.21,6.82-11.87,6.84-11.87,4.05-7.07,17.32-30.05a4.25,4.25,0,0,1,7.35,0l17.4,30.08,4.08,7,5.45,9.44v0l8.27,14.27,2.43,4.19h-0.81l0.81,1.4m28.77,50.28h-25a3.91,3.91,0,0,0-1.9.47,4.2,4.2,0,0,0-1.73,5.95l4.61,7.71,0.84,1.23h20.36a4.16,4.16,0,0,0,3.74-2.32,3.74,3.74,0,0,0,.5-1.93v-8.27l-1.42-2.85m-7-14h-0.78l5.31,9-4.52-9M231.34,91.53l0.39-.61H231L230.42,90l-0.53.95-38-.14-28-.11-36.53-.14L127.07,90l-0.34.56h-0.36l0.2,0.31L115.9,109.38l-7.74,13.46L86.54,160.41l-0.06.08a4.33,4.33,0,0,0,2.88-2.15L105.48,129v2.46l1.4-2.46v11.42a4.22,4.22,0,0,0,.7,2.35,4.28,4.28,0,0,0,3.55,1.9h21.23l0.84-1.31,4.61-7.63a4.24,4.24,0,0,0-3.63-6.42H108.44l0.73-1.4h-0.73l1.31-2.26,1.51-2.54,0.45-.61,7.65-13,7.6-13c0.14-.28,1.09-0.45,2.49-0.59h0.14a8.47,8.47,0,0,1,.87-0.06c5.81-.36,17.07.08,20.17,0.84a6.72,6.72,0,0,1,4.58,3.88,6.62,6.62,0,0,1-.5,6.15l-5.42,8.63-0.31.5-0.06.11a4.24,4.24,0,0,0,3.66,6.37h53a4.07,4.07,0,0,0,1.76-.39,4.2,4.2,0,0,0,2-5.87l-0.06-.11-0.17-.28-0.2-.34L205.25,109l-1.17-2a7.5,7.5,0,0,1,6.51-11.23h17a4.89,4.89,0,0,1,1.12.14,4.25,4.25,0,0,1,2.54,2l7.07,12,3.66,0L231.34,91.53" transform="translate(-68.9 -0.18)"/><polyline class="cls-3" points="177.91 124.17 173.39 115.12 172.6 115.12 169.36 109.64 151.35 109.59 151.88 108.61 152.24 108.03 159.75 95.71 161.88 92.22 162.44 90.97 162.83 89.98 160.98 89.98 123.03 90.22 95.04 90.3 58.5 90.25 57.66 90.6 58.39 91.8 60.68 95.67 67.92 107.71 68.28 108.3 68.81 109.28 50.46 109.22 46.99 109.2 39.26 122.66 40.85 125.43 43 129.09 44.37 131.4 47.41 136.63 51.97 144.45 52.55 145.45 75.54 145.54 81.43 145.56 88.77 145.59 84.98 139.03 84.98 139 81.81 133.95 80.21 131.38 77.11 126.06 70.62 115.12 73.11 115.12 80.06 115.39 90.73 115.18 129.67 115.12 135.43 115.12 140.4 115.12 146.51 115.12 149.14 115.12 147.72 117.84 142.74 126.1 141.66 127.96 139.5 131.55 139.31 131.88 138.56 133.12 130.87 145.75 129.92 147.95 145.84 148.64 148.61 148.64 151.6 148.64 161.4 148.64 162.66 148.64 167.32 148.06 169.11 144.75 176.35 132.34 178.19 129.16 179.36 127.11 179.5 126.87 177.91 124.17"/><polyline class="cls-6" points="120.71 90.34 121.13 90.2 121.29 89.98 120.71 90.34"/><polyline class="cls-3" points="111.25 1.79 111.22 1.79 111.24 1.77 111.25 1.79"/><path class="cls-3" d="M180.17,2h0l27.51,47.68L180.17,2M152.71,49.66L180.14,2h0l-27.4,47.68" transform="translate(-68.9 -0.18)"/><path class="cls-3" d="M207.65,49.08L180.87,2l-0.7,0,27.49,47.68H208l-0.34-.59m-54.94,0-0.34.59h0.34L180.11,2h-0.67L152.71,49.08" transform="translate(-68.9 -0.18)"/><polyline class="cls-6" points="167.67 92.35 164.48 94.57 160.62 89.08 163.81 86.86 167.67 92.35"/><polyline class="cls-6" points="165.64 86.64 205.66 159.58 201.9 161.72 160.92 89.28 165.64 86.64"/><polyline class="cls-6" points="183.22 131.85 183.22 133.36 182.74 132.55 181.82 131.01 181.82 131.94 180.4 129.09 182.74 131.94 182.74 131.01 183.22 131.85"/><polyline class="cls-6" points="121.13 90.2 120.71 90.34 121.29 89.98 121.13 90.2"/><polyline class="cls-6" points="121.29 89.98 121.13 90.2 120.71 90.34 121.29 89.98"/><polyline class="cls-2" points="84.98 137.24 84.98 137.21 78.98 126.29 72.96 115.59 61.47 95.62 58.46 90.34 58.15 89.78 57.82 90.34 57.66 90.65 46.99 109.2 39.26 122.66 20.27 155.65 18.94 157.96 17.64 160.23 17.58 160.31 16.38 162.64 49.37 162.6 50.79 159.98 51.1 159.45 57.33 148.69 58.17 147.27 58.45 147.74 65.57 159.92 67.09 162.6 69.03 162.59 69.65 162.58 99.17 162.31 84.98 137.24"/><polyline class="cls-2" points="152.54 162.44 154.88 158.09 160.61 147.94 160.61 148.08 160.84 148.55 168.01 160.55 169.42 162.58 202.92 162.56 202.11 161.19 202.92 162.56 189.51 138.79 189.18 138.2 162.5 91.07 161.81 89.84 161.75 89.84 161.08 91.04 134.24 138.07 133.9 138.66 121.33 160.97 121.08 161.39 120.94 162.37 152.54 162.44"/><polyline class="cls-6" points="61.76 90.34 52.51 90.34 52.51 84.92 61.76 84.92 61.76 90.34"/><path class="cls-7" d="M179.44,2l21.07,39,4.58,6.38,1.51,2.79,19.71-.47,0.73,1.4h0.53l9.25,15.47L237,67l0.22,0.25,9.69,15.95H113.1l9.69-15.95L123,67l0.17-.45,9.25-15.47h0.84l0.59-1.4h18.52l1.86-1.86,4-6.4L180.87,2c-1.06,0-3.58,0-4.64,0-0.84,0-1.65.06-2.46,0.08-2.74.08-5.5,0.28-8.3,0.64a107.94,107.94,0,0,0-54.83,23.49h0c-1.17,1-2.35,2-3.46,3l-0.2.17c-1,.89-1.93,1.76-2.88,2.68s-1.87,1.82-2.77,2.77c-0.42.42-.84,0.87-1.23,1.28a24.11,24.11,0,0,0-1.62,1.79c-0.53.56-1,1.15-1.54,1.73s-1.12,1.28-1.68,2c-1.4,1.7-2.74,3.46-4,5.25-1,1.34-1.9,2.71-2.82,4.08a104.45,104.45,0,0,0-7.29,13,97.6,97.6,0,0,0-5.36,13.66c-0.25.78-.5,1.56-0.73,2.37s-0.47,1.56-.67,2.37S74,83.85,73.8,84.58c-0.36,1.42-.67,2.85-0.95,4.27-0.25,1.09-.45,2.18-0.61,3.27-0.34,2-.61,4-0.84,6.06-0.17,1.31-.28,2.63-0.39,4v0.14l0,0.31c-0.11,1.7-.2,3.38-0.25,5.11v0c0,0.84,0,1.7,0,2.57,0,1.9.06,3.8,0.14,5.67s0.25,3.74.45,5.59c0.08,1,.2,1.93.34,2.88,0.28,2.15.64,4.3,1,6.42,0.22,1.12.39,2,.61,3A107,107,0,0,0,77,146.67c0.31,0.89.64,1.73,0.95,2.6q0.68,1.73,1.39,3.4,0.48,1.13,1,2.24l0.92,2c0.22,0.45.43,0.86,0.64,1.31a51.49,51.49,0,0,0,3,5.32l1.66-3.17,21.62-37.57,7.74-13.46,10.67-18.55-0.2-.31h0.36l0.34-.56,0.34,0.56,36.53,0.14,28,0.11,38,0.14,0.53-.95L231,90.92l0.36,0.61,10.59,18.32,8.24,14.22L271,161.38l0.71,1.41c0.84-.23,6.27-7.19,6.18-8.23,0,0,1.53-3.16,2.51-5.73,0.25-.7.53-1.4,0.75-2.09a96.68,96.68,0,0,0,3.24-10.84c0.22-.89.42-1.79,0.61-2.68,0.28-1.23.53-2.46,0.73-3.72,0.14-.73.25-1.45,0.36-2.18a109,109,0,0,0,1.34-17.21C287.34,50.73,237.86,2.82,179.44,2M224.94,90.9h12.74V86.24H224.94V90.9" transform="translate(-68.9 -0.18)"/><path class="cls-8" d="M288.85,110.35A109.79,109.79,0,0,1,179.07,220.13h0A109.77,109.77,0,0,0,288.85,110.36h0" transform="translate(-68.9 -0.18)"/><path class="cls-9" d="M236.73,182.45l-0.06-.11h0.2l-0.14.11M273,161.63a6.78,6.78,0,0,1-1.17,1.12h0l-0.09,0,0,0h-6v0h-39.1l10.08,19.55H127.24l0.31-.84,10.39-18.71H118.27l-32.45,0A107,107,0,0,0,273,161.63m-70.64-39.34h-45.9l-4.92,10-0.23.46,2.57,4.68v0l8,14.19h33.7l7.19-12.77,0.34-.59,4.29-7.51-5.07-8.46M179.22,10.43a4.18,4.18,0,0,0-3.66,2.12L158.24,42.6v0l11.95,0,1.41,2,3.87,6.45h7l2.25-4,2.33-4.36h13.28l0-.05-17.4-30.08a4.23,4.23,0,0,0-3.68-2.12" transform="translate(-68.9 -0.18)"/><path class="cls-10" d="M153.17,48.87h0l-0.46.79,0.46-.79-0.46.79h0l0.46-.79m47.17-6.19H187.05L184.73,47l-2.25,4h22.72l-0.81-1.4-4-7m-30.16-.1-11.95,0-4,7-0.81,1.4h22.08l-3.87-6.45-1.41-2" transform="translate(-68.9 -0.18)"/><path class="cls-11" d="M226.59,162.79l-0.34-.64,0.34,0.64m-99.52-15.33-0.84,1.42L120,159.63l-0.31.53-1.42,2.63h19.66L127.54,181.5l-0.31.84H236.67l-10.08-19.55h39.1v0l-27.36,0-0.9-1.3-11.16.68-2.4-4-0.07.13-2.34,4.36-31.6-.07,0.14-1,0.25-.42,5.37-9.54h-33.7l6.16,10.88-29.52.27H138.4l0.14,0h-0.61v0h0l-1.94,0-1.52-2.68-7.12-12.18-0.28-.47M142,115.3h-0.43l0.27,0.47,6,10.7,3.43,6.24,0.23-.46,4.92-10h-3.88a4.24,4.24,0,0,1-3.66-6.37l0.06-.11,0.15-.24H149l-7-.27m74.23,0h-7.36l0.2,0.34h0l6.34,0.42,0.18,0.36,0.64-1.11" transform="translate(-68.9 -0.18)"/><polyline class="cls-12" points="69.5 162.58 69.04 162.59 69.03 162.6 69.65 162.6 69.5 162.58"/><polyline class="cls-12" points="157.35 161.96 157.69 162.6 157.35 161.96"/><polyline class="cls-12" points="167.97 182.16 167.77 182.16 167.83 182.27 167.97 182.16"/><polyline class="cls-13" points="136.29 50.88 113.57 50.88 106.56 50.88 84.48 50.88 78.44 61.35 71.63 73.22 69.79 76.43 69 77.41 70.04 77.41 69.79 77.83 69.65 78.81 151.63 78.81 150.82 77.41 151.63 77.41 149.2 73.22 140.93 58.95 140.93 58.92 136.29 50.88"/><path class="cls-11" d="M229.8,148.82h-0.68l-5.26,9.32,2.4,4,11.16-.68-0.5-.73-7.11-11.92m-20.72-33.18,0.17,0.28L209.3,116a4.2,4.2,0,0,1-2,5.87,4.07,4.07,0,0,1-1.76.39h-3.23l5.07,8.46,8.18-14.33-0.18-.36-6.34-.42" transform="translate(-68.9 -0.18)"/><path class="cls-14" d="M204.33,115.3h-5.75l-38.94.06-10.52.2-0.15.24-0.06.11a4.24,4.24,0,0,0,3.66,6.37h53a4.07,4.07,0,0,0,1.76-.39,4.2,4.2,0,0,0,2-5.87l-0.06-.11-0.17-.28h0l-0.2-.34h-4.55m-77.6-24.78h-0.35l0.19,0.3v0h0l0.13-.25m31.5-47.91v0l17.32-30.05a4.18,4.18,0,0,1,3.66-2.12,4.23,4.23,0,0,1,3.68,2.12l17.4,30.08,0,0.05,4,7,0.81,1.4,4.64,8v0l8.27,14.27,2.43,4.19h-0.81l0.81,1.4h-82l0.14-1,0.25-.42h-1l0.78-1,1.84-3.21,6.82-11.87,6-10.47,0.81-1.4,4-7M180.08,3.38l-21.89,38-4,6.4-1.07,1.07-0.46.79H133.86l-0.59,1.4h-0.84l-9.25,15.47L123,67l-0.22.25L113.1,83.18H246.9L237.2,67.23,237,67l-0.17-.45-9.25-15.47H227l-0.73-1.4-19.71.47-1.51-2.79L200.51,41,180.2,3.39h-0.12" transform="translate(-68.9 -0.18)"/><path class="cls-11" d="M229.51,148.12l-0.39.7h0.68l-0.05-.08-0.24-.48v-0.14M126.59,90.78h0v0l0,0m0.81-.25h0l3,5.28,11.21,19.5H142l7,0.27h0.15l10.52-.2,38.94-.06h17.66L230,91.23l0.18-.33H229.9v0l-38-.14-28-.11-36.53-.14" transform="translate(-68.9 -0.18)"/><polyline class="cls-11" points="84.27 48.69 84.26 48.69 83.81 49.48 84.27 48.69"/><polyline class="cls-11" points="84.26 48.69 83.47 49.48 83.81 49.48 84.26 48.69"/><polyline class="cls-15" points="173.31 110.16 189.18 138.2 189.51 138.79 198.35 154.45 181.26 123.89 173.31 110.16"/><path class="cls-10" d="M127.37,90.53h-0.64l-0.13.25,0,0v0h0L115.9,109.38l-7.74,13.46L86.54,160.41l-1,1.91,0.28,0.5,32.45,0,1.42-2.63,0.31-.53,6.23-10.75,0.84-1.42,0.28,0.47,7.12,12.18,1.52,2.68,1.94,0h0.62l29.52-.27-6.16-10.88-8-14.19v0l-2.57-4.68-3.43-6.24-6-10.7-0.27-.47-11.21-19.5-3-5.28" transform="translate(-68.9 -0.18)"/><path class="cls-10" d="M271.82,162.75h0m0,0h0M231,90.9h-0.8l-0.18.33L216.24,115.3l-0.64,1.11-8.18,14.33-4.29,7.51-0.34.59-7.19,12.77-5.37,9.54-0.25.42-0.14,1,31.6,0.07,2.34-4.36,0.07-.13,5.26-9.32,0.39-.7v0.14l0.24,0.48,0.05,0.08,7.11,11.92,0.5,0.73,0.9,1.3,27.36,0h6L271,161.38l-3.77-6.74L258.41,139l-0.33-.59-15.87-28-0.28-.49L231.34,91.53,231,90.92v0" transform="translate(-68.9 -0.18)"/><polyline class="cls-15" points="58.17 89.78 57.83 90.34 57.47 90.34 57.82 90.34 58.46 90.34 58.5 90.34 58.17 89.78"/><path class="cls-16" d="M179.08,3.38A107,107,0,0,0,85.54,162.32l1-1.91,21.62-37.57,7.74-13.46,10.67-18.55h0l-0.19-.3h0.36l0.34-.56,0.34,0.56,36.53,0.14,28,0.11,38,0.14v0H231v0l0.36,0.61,10.59,18.32,0.28,0.49,8,13.73,17.08,30.56,3.77,6.74,0.69,1.37,0,0,0.09,0h0a6.78,6.78,0,0,0,1.17-1.12A107,107,0,0,0,180.2,3.39L200.51,41l4.58,6.38,1.51,2.79,19.71-.47,0.73,1.4h0.53l9.25,15.47L237,67l0.22,0.25,9.69,15.95H113.1l9.69-15.95L123,67l0.17-.45,9.25-15.47h0.84l0.59-1.4h18.52l0.79-.79h0l1.07-1.07,4-6.4,21.89-38h-1" transform="translate(-68.9 -0.18)"/><path class="cls-17" d="M85.82,162.82h0a107.12,107.12,0,0,0,93.26,54.52h0a107.11,107.11,0,0,1-93.25-54.52" transform="translate(-68.9 -0.18)"/><path class="cls-18" d="M180.09,3.36l0,0h0.12l0,0h-0.09" transform="translate(-68.9 -0.18)"/><path class="cls-19" d="M85.54,162.32v0l0.27,0.48h0l-0.28-.5" transform="translate(-68.9 -0.18)"/><path class="cls-18" d="M180.18,3.36l0,0a107,107,0,0,1,105.86,107h0a107,107,0,0,0-105.87-107m-1.12,0a107,107,0,0,0-107,107h0a106.52,106.52,0,0,0,13.46,52v0A107,107,0,0,1,179.08,3.38h1l0,0h-1" transform="translate(-68.9 -0.18)"/><path class="cls-20" d="M69.31,110.35h0A109.79,109.79,0,0,0,179.06,220.13h0A109.78,109.78,0,0,1,69.31,110.36h0M179.06,0.56A109.79,109.79,0,0,0,69.28,110.35h0a109.77,109.77,0,0,1,219.55,0h0A109.79,109.79,0,0,0,179.06.56" transform="translate(-68.9 -0.18)"/><path class="cls-21" d="M180.14,3.27l0,0.08h0.09l0-.08m0-1.29h0" transform="translate(-68.9 -0.18)"/><polyline class="cls-22" points="111.24 1.77 111.22 1.79 111.25 1.79 111.24 1.77"/><path class="cls-22" d="M180.14,2h0m0,0h0" transform="translate(-68.9 -0.18)"/><path class="cls-22" d="M180.87,2h0m-1.42,0h0V2h0V2m0.67,0h0m0.06,0h0.7l-0.7,0" transform="translate(-68.9 -0.18)"/><path class="cls-23" d="M274.56,159.75v0h0" transform="translate(-68.9 -0.18)"/><path class="cls-2" d="M85.53,162.34l-0.25.48H85.8l-0.27-.48" transform="translate(-68.9 -0.18)"/><path class="cls-21" d="M72.07,110.36H70.7c0,1.88.06,3.76,0.14,5.61s0.25,3.74.45,5.59c0.08,1,.2,1.93.34,2.88,0.28,2.15.64,4.3,1,6.42,0.22,1.12.39,2,.61,3A107,107,0,0,0,77,146.67c0.31,0.89.64,1.73,0.95,2.6q0.68,1.73,1.39,3.4,0.48,1.13,1,2.24l0.92,2c0.22,0.45.43,0.86,0.64,1.31a51.49,51.49,0,0,0,3,5.32l0.4-.76,0.25-.48a106.52,106.52,0,0,1-13.46-52M179.44,2h0V2h-0.91c-0.89,0-1.79,0-2.32,0-0.84,0-1.65.06-2.46,0.08-2.74.08-5.5,0.28-8.3,0.64a107.94,107.94,0,0,0-54.83,23.49h0c-1.17,1-2.35,2-3.46,3l-0.2.17c-1,.89-1.93,1.76-2.88,2.68s-1.87,1.82-2.77,2.77c-0.42.42-.84,0.87-1.23,1.28a24.11,24.11,0,0,0-1.62,1.79c-0.53.56-1,1.15-1.54,1.73s-1.12,1.28-1.68,2c-1.4,1.7-2.74,3.46-4,5.25-1,1.34-1.9,2.71-2.82,4.08a104.45,104.45,0,0,0-7.29,13,97.6,97.6,0,0,0-5.36,13.66c-0.25.78-.5,1.56-0.73,2.37s-0.47,1.56-.67,2.37S74,83.85,73.8,84.58c-0.36,1.42-.67,2.85-0.95,4.27-0.25,1.09-.45,2.18-0.61,3.27-0.34,2-.61,4-0.84,6.06-0.17,1.31-.28,2.63-0.39,4v0.14l0,0.31c-0.11,1.7-.2,3.38-0.25,5.11v0c0,0.84,0,1.7,0,2.57v0h1.37a107,107,0,0,1,107-107h1l0-.08,0,0.08a107,107,0,0,1,105.87,107h0A106.5,106.5,0,0,1,273,161.62c0.46-.51,1-1.16,1.55-1.84v0c1.66-2.09,3.4-4.6,3.35-5.2,0,0,1.53-3.16,2.51-5.73,0.25-.7.53-1.4,0.75-2.09a96.68,96.68,0,0,0,3.24-10.84c0.22-.89.42-1.79,0.61-2.68,0.28-1.23.53-2.46,0.73-3.72,0.14-.73.25-1.45,0.36-2.18a109,109,0,0,0,1.34-17.21C287.34,51.21,238.67,3.6,180.87,2h-1.43" transform="translate(-68.9 -0.18)"/><path class="cls-24" d="M273,161.62v0a107.12,107.12,0,0,1-93.92,55.71h0A107.11,107.11,0,0,0,273,161.62" transform="translate(-68.9 -0.18)"/><path class="cls-25" d="M286.06,110.35A106.49,106.49,0,0,1,273,161.63v0a106.5,106.5,0,0,0,13.05-51.26h0" transform="translate(-68.9 -0.18)"/><polyline class="cls-25" points="3.17 110.18 1.8 110.18 1.8 110.18 3.17 110.18 3.17 110.18"/><path class="cls-26" d="M70.7,110.35h0M180.15,2h0V2m-1.07-1.39A109.77,109.77,0,0,0,69.31,110.35h1.4v0c0-.87,0-1.73,0-2.57v0c0.06-1.73.14-3.41,0.25-5.11l0-.31v-0.14c0.11-1.34.22-2.65,0.39-4,0.22-2,.5-4.05.84-6.06,0.17-1.09.36-2.18,0.61-3.27,0.28-1.42.59-2.85,0.95-4.27,0.2-.73.36-1.48,0.56-2.21S74.78,80.78,75,80s0.47-1.59.73-2.37A97.6,97.6,0,0,1,81.12,64a104.45,104.45,0,0,1,7.29-13c0.92-1.37,1.84-2.74,2.82-4.08,1.28-1.79,2.63-3.55,4-5.25,0.56-.67,1.09-1.31,1.68-2s1-1.17,1.54-1.73a24.11,24.11,0,0,1,1.62-1.79c0.39-.42.81-0.87,1.23-1.28q1.34-1.42,2.77-2.77c0.95-.92,1.9-1.79,2.88-2.68l0.2-.17c1.12-1,2.29-2,3.46-3h0A107.94,107.94,0,0,1,165.48,2.77c2.79-.36,5.56-0.56,8.3-0.64,0.81,0,1.62-.08,2.46-0.08,0.53,0,1.42,0,2.32,0h0.88V2h0.73l0.7,0h0c57.8,1.58,106.48,49.19,106.59,108.1a109,109,0,0,1-1.34,17.21c-0.11.73-.22,1.45-0.36,2.18-0.2,1.26-.45,2.49-0.73,3.72-0.2.89-.39,1.79-0.61,2.68a96.68,96.68,0,0,1-3.24,10.84c-0.22.7-.5,1.4-0.75,2.09-1,2.57-2.51,5.73-2.51,5.73,0.05,0.6-1.69,3.11-3.35,5.2h0c-0.55.69-1.08,1.33-1.55,1.84a107.11,107.11,0,0,1-93.93,55.72h0A107.12,107.12,0,0,1,85.8,162.82H85.28l-0.4.76a51.49,51.49,0,0,1-3-5.32c-0.21-.45-0.42-0.87-0.64-1.31l-0.92-2q-0.51-1.11-1-2.24-0.72-1.68-1.39-3.4c-0.31-.87-0.64-1.7-0.95-2.6a107,107,0,0,1-3.69-12.79c-0.22-1-.39-1.9-0.61-3-0.39-2.12-.75-4.27-1-6.42-0.14-.95-0.25-1.9-0.34-2.88-0.2-1.84-.34-3.72-0.45-5.59s-0.14-3.73-.14-5.61h-1.4A109.77,109.77,0,1,0,179.08.59" transform="translate(-68.9 -0.18)"/><circle class="cls-27" cx="110.16" cy="110.16" r="109.79"/></g></g></svg>